<?xml version="1.0" standalone="no"?>
<!DOCTYPE svg PUBLIC "-//W3C//DTD SVG 20010904//EN"
 "http://www.w3.org/TR/2001/REC-SVG-20010904/DTD/svg10.dtd">
<svg version="1.0" xmlns="http://www.w3.org/2000/svg"
 width="512.000000pt" height="512.000000pt" viewBox="0 0 512.000000 512.000000"
 preserveAspectRatio="xMidYMid meet">
<metadata>
Created by potrace 1.14, written by Peter Selinger 2001-2017
</metadata>
<g transform="translate(0.000000,512.000000) scale(0.100000,-0.100000)"
fill="#000000" stroke="none">
<path d="M0 2560 l0 -2560 2560 0 2560 0 0 2560 0 2560 -2560 0 -2560 0 0
-2560z m2667 668 c-2 -7 -24 -66 -47 -130 l-43 -118 -477 0 c-508 0 -507 0
-498 -46 2 -10 148 -133 326 -274 178 -141 335 -269 350 -284 24 -23 27 -34
27 -89 -1 -80 -74 -287 -113 -317 -24 -20 -42 -20 -858 -20 -661 0 -834 3
-833 13 0 6 19 64 43 127 l43 115 419 5 419 5 0 26 c0 23 -41 58 -283 249
-180 141 -287 232 -294 249 -39 101 55 420 141 478 l34 23 825 0 c655 0 823
-3 819 -12z m2053 -7 c5 -11 10 -28 10 -38 0 -29 -187 -530 -216 -581 -41 -69
-88 -116 -152 -150 -107 -57 -147 -62 -564 -62 -208 0 -378 2 -378 4 0 4 71
204 85 239 6 15 24 17 164 17 l156 0 58 158 c32 86 57 160 57 165 0 4 -116 7
-257 7 l-258 0 -186 -513 -186 -512 -358 -3 c-284 -2 -356 0 -353 10 3 7 108
298 234 645 l229 633 952 0 c931 0 953 0 963 -19z"/>
</g>
</svg>
